<?xml version="1.0" encoding="utf-8"?>
<!-- Generator: Adobe Illustrator 19.0.0, SVG Export Plug-In . SVG Version: 6.00 Build 0)  -->
<svg version="1.1" id="Calque_1" xmlns="http://www.w3.org/2000/svg" xmlns:xlink="http://www.w3.org/1999/xlink" x="0px" y="0px"
	 viewBox="0 0 32 32" style="enable-background:new 0 0 32 32;" xml:space="preserve">
<style type="text/css">
	.st0{fill-rule:evenodd;clip-rule:evenodd;fill:url(#XMLID_2_);}
	.st1{fill:#530743;}
	.st2{fill-rule:evenodd;clip-rule:evenodd;fill:url(#XMLID_3_);}
	.st3{fill-rule:evenodd;clip-rule:evenodd;fill:#FFFFFF;stroke:#000000;stroke-width:0.8125;stroke-miterlimit:10;}
	.st4{fill-rule:evenodd;clip-rule:evenodd;}
</style>
<g id="XMLID_86_">
	<g id="XMLID_91_">
		<linearGradient id="XMLID_2_" gradientUnits="userSpaceOnUse" x1="15.9999" y1="3.3381" x2="15.9999" y2="28.7274">
			<stop  offset="0" style="stop-color:#D397AF"/>
			<stop  offset="0.2245" style="stop-color:#AF6796"/>
			<stop  offset="0.5624" style="stop-color:#7C2474"/>
			<stop  offset="0.7213" style="stop-color:#680A66"/>
		</linearGradient>
		<path id="XMLID_95_" class="st0" d="M16,28.729c-7.019,0-12.729-5.71-12.729-12.729S8.981,3.271,16,3.271S28.729,8.981,28.729,16
			S23.019,28.729,16,28.729z"/>
		<path id="XMLID_92_" class="st1" d="M16,3.542c6.881,0,12.458,5.578,12.458,12.458S22.881,28.458,16,28.458S3.542,22.881,3.542,16
			S9.119,3.542,16,3.542 M16,3C8.832,3,3,8.832,3,16s5.832,13,13,13s13-5.832,13-13S23.168,3,16,3L16,3z"/>
	</g>
	<linearGradient id="XMLID_3_" gradientUnits="userSpaceOnUse" x1="16" y1="-0.6581" x2="16" y2="17.4894">
		<stop  offset="0.25" style="stop-color:#FFFFFF"/>
		<stop  offset="0.6224" style="stop-color:#FFFFFF;stop-opacity:0"/>
	</linearGradient>
	<path id="XMLID_90_" class="st2" d="M16,4.292c4.597,0,9.265,2.566,11.703,7.426C25.956,6.946,21.376,3.542,16,3.542
		c-5.376,0-9.956,3.405-11.703,8.176C6.746,6.908,11.403,4.292,16,4.292z"/>
	<rect id="XMLID_89_" x="13.383" y="7.212" class="st3" width="5.233" height="17.575"/>
	<path id="XMLID_5_" class="st4" d="M13,12.605v2.981l6-3.346V9.265L13,12.605z M13,22.424l6-3.346v-2.975l-6,3.34V22.424z"/>
</g>
</svg>
