<?xml version="1.0" encoding="utf-8"?>
<!-- Generator: Adobe Illustrator 19.0.0, SVG Export Plug-In . SVG Version: 6.00 Build 0)  -->
<svg version="1.1" id="Calque_1" xmlns="http://www.w3.org/2000/svg" xmlns:xlink="http://www.w3.org/1999/xlink" x="0px" y="0px"
	 viewBox="0 0 32 32" style="enable-background:new 0 0 32 32;" xml:space="preserve">
<style type="text/css">
	.st0{fill-rule:evenodd;clip-rule:evenodd;fill:url(#XMLID_5_);}
	.st1{fill:#134C25;}
	.st2{fill:#162D17;stroke:#162D17;stroke-width:0.5532;stroke-miterlimit:10;}
	.st3{fill-rule:evenodd;clip-rule:evenodd;fill:url(#XMLID_6_);}
</style>
<g id="XMLID_242_">
	<g id="XMLID_245_">
		<linearGradient id="XMLID_5_" gradientUnits="userSpaceOnUse" x1="16" y1="3.0693" x2="16" y2="28.633">
			<stop  offset="0.1793" style="stop-color:#D7E26E"/>
			<stop  offset="0.3994" style="stop-color:#BAD159"/>
			<stop  offset="0.7194" style="stop-color:#8AB535"/>
		</linearGradient>
		<path id="XMLID_249_" class="st0" d="M16,28.862c-7.092,0-12.862-5.77-12.862-12.862S8.908,3.138,16,3.138S28.862,8.908,28.862,16
			S23.092,28.862,16,28.862z"/>
		<path id="XMLID_246_" class="st1" d="M16,3.277c7.027,0,12.723,5.696,12.723,12.723S23.027,28.723,16,28.723
			S3.277,23.027,3.277,16S8.973,3.277,16,3.277 M16,3C8.832,3,3,8.832,3,16s5.832,13,13,13s13-5.832,13-13S23.168,3,16,3L16,3z"/>
	</g>
	<path id="XMLID_2_" class="st2" d="M13.678,10.231c0.198,0.212,0.357,0.44,0.478,0.684c0.12,0.244,0.18,0.49,0.18,0.737
		c0,0.17-0.032,0.327-0.095,0.472s-0.151,0.27-0.259,0.376c-0.11,0.106-0.239,0.19-0.387,0.249c-0.149,0.06-0.312,0.09-0.488,0.09
		c-0.163,0-0.318-0.027-0.467-0.08s-0.283-0.132-0.403-0.238c-0.121-0.106-0.216-0.237-0.287-0.392
		c-0.071-0.156-0.106-0.34-0.106-0.552c0-0.318,0.09-0.656,0.27-1.013c0.18-0.357,0.445-0.684,0.795-0.981
		c0.35-0.297,0.787-0.545,1.31-0.742c0.523-0.198,1.124-0.297,1.803-0.297c0.672,0,1.267,0.099,1.787,0.297
		c0.52,0.198,0.958,0.461,1.315,0.79c0.357,0.329,0.628,0.705,0.812,1.13c0.184,0.424,0.276,0.866,0.276,1.326
		c0,0.905-0.364,1.754-1.092,2.545c-0.297,0.326-0.633,0.637-1.008,0.934c-0.375,0.297-0.726,0.608-1.055,0.934
		c-0.329,0.325-0.604,0.681-0.827,1.066c-0.222,0.385-0.334,0.826-0.334,1.32c0,0.099,0.005,0.214,0.015,0.345
		c0.011,0.131,0.027,0.267,0.048,0.409c-0.113,0.043-0.235,0.073-0.366,0.09c-0.131,0.018-0.256,0.026-0.376,0.026
		c-0.113-0.445-0.17-0.859-0.17-1.241c0-0.367,0.046-0.7,0.138-0.997s0.21-0.567,0.355-0.811s0.307-0.47,0.488-0.679
		c0.18-0.209,0.363-0.409,0.546-0.599c0.219-0.24,0.424-0.474,0.615-0.7c0.19-0.226,0.355-0.47,0.493-0.732
		c0.138-0.262,0.248-0.55,0.328-0.865c0.082-0.315,0.122-0.677,0.122-1.087c0-0.481-0.057-0.889-0.17-1.225
		c-0.113-0.336-0.273-0.61-0.478-0.822c-0.205-0.212-0.451-0.366-0.737-0.462c-0.286-0.096-0.606-0.143-0.959-0.143
		c-0.424,0-0.824,0.067-1.199,0.202C14.216,9.729,13.912,9.941,13.678,10.231z M15.609,24.253c-0.205,0-0.394-0.035-0.568-0.106
		c-0.173-0.071-0.327-0.17-0.462-0.297c-0.134-0.127-0.238-0.279-0.313-0.456c-0.073-0.176-0.111-0.371-0.111-0.583
		c0-0.212,0.038-0.409,0.116-0.589c0.078-0.18,0.182-0.334,0.313-0.461c0.131-0.127,0.285-0.228,0.462-0.302
		s0.367-0.112,0.573-0.112c0.198,0,0.385,0.035,0.562,0.106c0.176,0.071,0.332,0.17,0.466,0.297
		c0.134,0.127,0.238,0.279,0.312,0.456c0.074,0.177,0.112,0.371,0.112,0.584s-0.037,0.408-0.112,0.589
		c-0.074,0.18-0.178,0.336-0.312,0.467c-0.134,0.131-0.29,0.232-0.466,0.302C16.005,24.218,15.814,24.253,15.609,24.253z"/>
	<linearGradient id="XMLID_6_" gradientUnits="userSpaceOnUse" x1="16.0041" y1="-1.0126" x2="16.0041" y2="17.5212">
		<stop  offset="0.25" style="stop-color:#FFFFFF"/>
		<stop  offset="0.6224" style="stop-color:#FFFFFF;stop-opacity:0"/>
	</linearGradient>
	<path id="XMLID_7_" class="st3" d="M16.039,3.277c-5.49,0-10.238,3.477-12.021,8.35c2.501-4.911,7.326-7.649,12.021-7.649
		s9.462,2.685,11.952,7.649C26.207,6.754,21.529,3.277,16.039,3.277z"/>
</g>
</svg>
