<?xml version="1.0" encoding="utf-8"?>
<!-- Generator: Adobe Illustrator 19.0.0, SVG Export Plug-In . SVG Version: 6.00 Build 0)  -->
<svg version="1.1" id="Calque" xmlns="http://www.w3.org/2000/svg" xmlns:xlink="http://www.w3.org/1999/xlink" x="0px" y="0px"
	 viewBox="0 0 32 32" style="enable-background:new 0 0 32 32;" xml:space="preserve">
<style type="text/css">
	.st0{fill-rule:evenodd;clip-rule:evenodd;fill:url(#XMLID_2_);}
	.st1{fill:#88321C;}
	.st2{fill-rule:evenodd;clip-rule:evenodd;}
	.st3{fill-rule:evenodd;clip-rule:evenodd;fill:none;stroke:#000000;stroke-width:0.5417;stroke-miterlimit:10;}
	.st4{fill-rule:evenodd;clip-rule:evenodd;fill:url(#XMLID_3_);}
</style>
<g id="entity_x5F_door">
	<g id="XMLID_263_">
		<linearGradient id="XMLID_2_" gradientUnits="userSpaceOnUse" x1="15.9999" y1="3.3381" x2="15.9999" y2="28.7274">
			<stop  offset="0.158" style="stop-color:#FFE83B"/>
			<stop  offset="0.3069" style="stop-color:#FDD732"/>
			<stop  offset="0.5997" style="stop-color:#F9AC1C"/>
			<stop  offset="0.6294" style="stop-color:#F9A719"/>
		</linearGradient>
		<path id="XMLID_267_" class="st0" d="M16,28.729c-7.019,0-12.729-5.71-12.729-12.729S8.981,3.271,16,3.271S28.729,8.981,28.729,16
			S23.019,28.729,16,28.729z"/>
		<path id="XMLID_264_" class="st1" d="M16,3.542c6.881,0,12.458,5.578,12.458,12.458S22.881,28.458,16,28.458
			C9.119,28.458,3.542,22.881,3.542,16S9.119,3.542,16,3.542 M16,3C8.832,3,3,8.832,3,16s5.832,13,13,13s13-5.832,13-13
			S23.168,3,16,3L16,3z"/>
	</g>
	<g id="XMLID_260_">
		<polygon id="XMLID_262_" class="st2" points="10.628,21.733 17.49,24.08 17.49,7.92 10.628,10.267 		"/>
		<rect id="XMLID_261_" x="17.49" y="8.913" class="st3" width="3.882" height="14.174"/>
	</g>
	<linearGradient id="XMLID_3_" gradientUnits="userSpaceOnUse" x1="16" y1="-0.6582" x2="16" y2="17.4895">
		<stop  offset="0.25" style="stop-color:#FFFFFF"/>
		<stop  offset="0.6224" style="stop-color:#FFFFFF;stop-opacity:0"/>
	</linearGradient>
	<path id="XMLID_4_" class="st4" d="M16,3.542c-5.376,0-9.956,3.405-11.703,8.176C6.746,6.908,11.403,4.304,16,4.304
		s9.265,2.553,11.703,7.413C25.956,6.946,21.376,3.542,16,3.542z"/>
</g>
</svg>
