<?xml version="1.0" encoding="utf-8"?>
<!-- Generator: Adobe Illustrator 19.0.0, SVG Export Plug-In . SVG Version: 6.00 Build 0)  -->
<svg version="1.1" id="Calque_1" xmlns="http://www.w3.org/2000/svg" xmlns:xlink="http://www.w3.org/1999/xlink" x="0px" y="0px"
	 viewBox="0 0 32 32" style="enable-background:new 0 0 32 32;" xml:space="preserve">
<style type="text/css">
	.st0{fill-rule:evenodd;clip-rule:evenodd;fill:url(#XMLID_2_);stroke:#17345D;stroke-width:0.4239;stroke-miterlimit:10;}
	.st1{fill-rule:evenodd;clip-rule:evenodd;fill:url(#XMLID_3_);stroke:#17345D;stroke-width:0.4239;stroke-miterlimit:10;}
</style>
<g id="XMLID_39_">
	<linearGradient id="XMLID_2_" gradientUnits="userSpaceOnUse" x1="15.9958" y1="4.1079" x2="15.9958" y2="24.2752">
		<stop  offset="0.1224" style="stop-color:#EFF4EF"/>
		<stop  offset="0.3071" style="stop-color:#C9DBF1"/>
		<stop  offset="0.5166" style="stop-color:#A4C3F2"/>
		<stop  offset="0.6276" style="stop-color:#96BAF3"/>
	</linearGradient>
	<path id="XMLID_42_" class="st0" d="M28.992,15.661c-0.006-0.107-0.014-0.218-0.025-0.325c-0.02-0.209-0.051-0.413-0.093-0.616
		c-0.02-0.102-0.042-0.203-0.068-0.305c-0.023-0.088-0.045-0.172-0.071-0.257c-0.003-0.017-0.008-0.034-0.014-0.051
		c-0.059-0.195-0.127-0.387-0.206-0.574c-0.025-0.065-0.054-0.133-0.085-0.198c-0.054-0.122-0.11-0.24-0.172-0.356
		c-0.04-0.073-0.079-0.147-0.122-0.218c-0.037-0.068-0.076-0.133-0.119-0.198c-0.034-0.057-0.071-0.113-0.107-0.17
		c-0.045-0.068-0.09-0.133-0.136-0.195c-0.051-0.071-0.105-0.141-0.161-0.209c-0.04-0.057-0.085-0.11-0.13-0.164
		c-0.057-0.068-0.113-0.133-0.172-0.198c-0.062-0.071-0.127-0.138-0.195-0.203c-0.09-0.093-0.187-0.184-0.285-0.271
		c-0.042-0.04-0.085-0.076-0.127-0.113c-0.057-0.048-0.116-0.096-0.175-0.141c-0.071-0.057-0.144-0.113-0.22-0.167
		c-0.017-0.014-0.034-0.025-0.051-0.037c-0.071-0.051-0.144-0.099-0.218-0.15c-0.099-0.065-0.203-0.127-0.308-0.187
		c-0.059-0.034-0.119-0.068-0.178-0.099c-0.051-0.028-0.105-0.054-0.155-0.079c-0.057-0.028-0.113-0.057-0.172-0.082
		c-0.088-0.042-0.178-0.082-0.268-0.119c-0.093-0.04-0.189-0.076-0.288-0.11c-0.116-0.042-0.235-0.079-0.356-0.113
		c-0.079-0.023-0.158-0.045-0.237-0.065c-0.127-0.031-0.26-0.059-0.39-0.082c-0.073-0.017-0.15-0.028-0.226-0.04
		C23.147,9.523,22.825,9.5,22.5,9.5c-3.589,0-6.5,2.908-6.5,6.5c0,3.589-2.911,6.5-6.5,6.5c-0.461,0-0.907-0.048-1.34-0.141
		c-0.096-0.017-0.192-0.04-0.285-0.065c-0.102-0.025-0.206-0.054-0.308-0.088c-0.099-0.028-0.195-0.062-0.291-0.099
		c-0.017-0.003-0.037-0.011-0.054-0.02C7.146,22.062,7.072,22.031,6.999,22c-0.127-0.051-0.249-0.107-0.37-0.17
		c-0.076-0.037-0.153-0.076-0.226-0.116c-0.201-0.107-0.396-0.226-0.582-0.356c-0.062-0.042-0.122-0.085-0.181-0.13
		c-0.096-0.071-0.189-0.144-0.283-0.22c-0.076-0.065-0.153-0.13-0.226-0.198c-0.076-0.071-0.153-0.141-0.226-0.215
		c-0.073-0.073-0.144-0.15-0.215-0.226c-0.054-0.057-0.107-0.119-0.155-0.178c-0.034-0.037-0.065-0.076-0.099-0.116
		c-0.088-0.11-0.172-0.223-0.252-0.339c-0.04-0.051-0.076-0.105-0.11-0.158c-0.048-0.071-0.093-0.144-0.138-0.22
		c-0.037-0.057-0.071-0.113-0.102-0.172c-0.025-0.048-0.054-0.093-0.079-0.141c-0.068-0.127-0.133-0.26-0.189-0.396
		c-0.028-0.059-0.054-0.122-0.079-0.184c-0.079-0.187-0.147-0.376-0.206-0.571c-0.006-0.017-0.008-0.034-0.014-0.051
		c-0.025-0.085-0.048-0.172-0.071-0.257c-0.028-0.11-0.054-0.223-0.073-0.336c-0.04-0.192-0.068-0.387-0.088-0.585
		c-0.011-0.11-0.02-0.218-0.025-0.331C3.003,16.223,3,16.113,3,16c0-0.113,0.003-0.223,0.008-0.333C3.186,8.638,8.932,3,16,3
		C23.062,3,28.811,8.635,28.992,15.661z"/>
	<linearGradient id="XMLID_3_" gradientUnits="userSpaceOnUse" x1="16.0042" y1="8.6296" x2="16.0042" y2="30.4901">
		<stop  offset="0.1378" style="stop-color:#8BCBE8"/>
		<stop  offset="0.2474" style="stop-color:#73B9DE"/>
		<stop  offset="0.5573" style="stop-color:#3488C5"/>
		<stop  offset="0.7041" style="stop-color:#1B75BB"/>
	</linearGradient>
	<path id="XMLID_40_" class="st1" d="M29,16c0,0.113-0.003,0.223-0.008,0.333C28.813,23.359,23.065,29,16,29
		C8.932,29,3.186,23.359,3.008,16.333c0.006,0.113,0.014,0.22,0.025,0.331c0.02,0.198,0.048,0.393,0.088,0.585
		c0.02,0.113,0.045,0.226,0.073,0.336c0.023,0.088,0.045,0.172,0.071,0.257c0.006,0.017,0.008,0.034,0.014,0.051
		c0.059,0.195,0.127,0.384,0.206,0.571c0.023,0.062,0.048,0.124,0.079,0.184c0.057,0.136,0.122,0.268,0.189,0.396
		c0.025,0.048,0.051,0.096,0.079,0.141c0.034,0.059,0.065,0.116,0.102,0.172c0.045,0.076,0.09,0.15,0.138,0.22
		c0.034,0.054,0.071,0.107,0.11,0.158c0.079,0.116,0.164,0.229,0.252,0.339c0.034,0.04,0.065,0.079,0.099,0.116
		c0.048,0.059,0.099,0.119,0.155,0.178c0.068,0.076,0.141,0.153,0.215,0.226c0.073,0.073,0.15,0.147,0.226,0.215
		c0.073,0.071,0.15,0.136,0.226,0.198c0.093,0.076,0.187,0.15,0.283,0.22c0.059,0.045,0.119,0.088,0.181,0.13
		c0.186,0.13,0.382,0.249,0.582,0.356c0.073,0.042,0.15,0.082,0.226,0.116c0.122,0.062,0.243,0.119,0.37,0.17
		c0.073,0.031,0.147,0.062,0.223,0.088c0.017,0.008,0.037,0.017,0.054,0.02c0.096,0.037,0.192,0.071,0.291,0.099
		c0.102,0.034,0.203,0.062,0.308,0.088c0.093,0.025,0.189,0.048,0.285,0.065C8.593,22.452,9.039,22.5,9.5,22.5
		c3.589,0,6.5-2.911,6.5-6.5c0-3.592,2.911-6.5,6.5-6.5c0.325,0,0.647,0.023,0.958,0.071c0.076,0.011,0.153,0.023,0.226,0.04
		c0.13,0.023,0.263,0.051,0.39,0.082c0.079,0.02,0.158,0.042,0.237,0.065c0.122,0.034,0.24,0.071,0.356,0.113
		c0.099,0.034,0.195,0.071,0.288,0.11c0.09,0.037,0.181,0.076,0.268,0.119c0.059,0.025,0.116,0.054,0.172,0.082
		c0.054,0.025,0.105,0.051,0.155,0.079c0.059,0.031,0.119,0.065,0.178,0.099c0.105,0.059,0.209,0.122,0.308,0.187
		c0.073,0.051,0.147,0.099,0.218,0.15c0.017,0.011,0.034,0.023,0.051,0.037c0.076,0.054,0.15,0.11,0.22,0.167
		c0.059,0.045,0.119,0.093,0.175,0.141c0.042,0.037,0.085,0.073,0.127,0.113c0.099,0.088,0.195,0.178,0.285,0.271
		c0.068,0.065,0.133,0.133,0.195,0.203c0.059,0.065,0.119,0.13,0.172,0.198c0.045,0.054,0.09,0.107,0.13,0.164
		c0.057,0.068,0.11,0.138,0.161,0.209c0.045,0.062,0.09,0.127,0.136,0.195c0.037,0.054,0.073,0.11,0.107,0.17
		c0.042,0.065,0.082,0.13,0.119,0.198c0.042,0.071,0.082,0.144,0.122,0.218c0.062,0.116,0.119,0.235,0.172,0.356
		c0.031,0.065,0.059,0.133,0.085,0.198c0.079,0.187,0.147,0.379,0.206,0.574c0.006,0.017,0.011,0.034,0.014,0.051
		c0.025,0.085,0.048,0.17,0.071,0.257c0.025,0.102,0.048,0.203,0.068,0.305c0.042,0.203,0.073,0.407,0.093,0.616
		c0.011,0.107,0.02,0.218,0.025,0.325C28.997,15.774,29,15.887,29,16z"/>
</g>
</svg>
