<?xml version="1.0" encoding="utf-8"?>
<!-- Generator: Adobe Illustrator 19.0.0, SVG Export Plug-In . SVG Version: 6.00 Build 0)  -->
<svg version="1.1" id="Calque_1" xmlns="http://www.w3.org/2000/svg" xmlns:xlink="http://www.w3.org/1999/xlink" x="0px" y="0px"
	 viewBox="0 0 32 32" style="enable-background:new 0 0 32 32;" xml:space="preserve">
<style type="text/css">
	.st0{fill:url(#XMLID_2_);stroke:#17345D;stroke-width:0.5474;stroke-miterlimit:10;}
	.st1{fill:url(#XMLID_3_);stroke:#17345D;stroke-width:0.2;stroke-miterlimit:10;}
	.st2{fill:url(#XMLID_4_);stroke:#17345D;stroke-width:0.2;stroke-miterlimit:10;}
	.st3{fill:none;stroke:#17345D;stroke-width:0.3;stroke-miterlimit:10;}
</style>
<g id="XMLID_278_">
	<linearGradient id="XMLID_2_" gradientUnits="userSpaceOnUse" x1="16" y1="12.7767" x2="16" y2="30.791">
		<stop  offset="0" style="stop-color:#6FADDE"/>
		<stop  offset="0.2157" style="stop-color:#74AFDE"/>
		<stop  offset="0.466" style="stop-color:#82B6DE"/>
		<stop  offset="0.733" style="stop-color:#99C2DE"/>
		<stop  offset="1" style="stop-color:#B8D1DE"/>
	</linearGradient>
	<rect id="XMLID_285_" x="3" y="9.878" class="st0" width="26" height="17.843"/>
	<g id="XMLID_279_">
		<linearGradient id="XMLID_3_" gradientUnits="userSpaceOnUse" x1="16" y1="8.7175" x2="16" y2="21.3101">
			<stop  offset="0" style="stop-color:#86C4E2"/>
			<stop  offset="0.5562" style="stop-color:#449AD2"/>
			<stop  offset="0.852" style="stop-color:#2687CA"/>
		</linearGradient>
		<path id="XMLID_283_" class="st1" d="M24.549,9.875v13.137H7.451V19.93c0.342,0.057,0.69,0.088,1.045,0.088
			c3.588,0,6.607-3.046,7.485-7.181c0.014-0.063,0.027-0.123,0.038-0.186c0.003-0.022,0.008-0.041,0.011-0.063
			c0.602-2.8,2.537-4.852,4.833-4.852C22.321,7.735,23.632,8.559,24.549,9.875z"/>
		<linearGradient id="XMLID_4_" gradientUnits="userSpaceOnUse" x1="16" y1="3.7228" x2="16" y2="17.4892">
			<stop  offset="0.1633" style="stop-color:#EFF4EF"/>
			<stop  offset="0.1746" style="stop-color:#EEF3EF"/>
			<stop  offset="0.7348" style="stop-color:#AFCAF2"/>
			<stop  offset="1" style="stop-color:#96BAF3"/>
		</linearGradient>
		<path id="XMLID_284_" class="st2" d="M24.549,4.278v5.597c-0.917-1.316-2.228-2.14-3.684-2.14c-2.296,0-4.231,2.053-4.833,4.852
			c-0.003,0.022-0.008,0.041-0.011,0.063c-0.011,0.063-0.025,0.123-0.038,0.186c-0.879,4.135-3.897,7.181-7.485,7.181
			c-0.356,0-0.703-0.03-1.045-0.088V4.278H24.549z"/>
		<rect id="XMLID_280_" x="7.451" y="4.278" class="st3" width="17.097" height="18.734"/>
	</g>
</g>
</svg>
