<?xml version="1.0" encoding="utf-8"?>
<!-- Generator: Adobe Illustrator 19.0.0, SVG Export Plug-In . SVG Version: 6.00 Build 0)  -->
<svg version="1.1" id="Calque_1" xmlns="http://www.w3.org/2000/svg" xmlns:xlink="http://www.w3.org/1999/xlink" x="0px" y="0px"
	 viewBox="0 0 32 32" style="enable-background:new 0 0 32 32;" xml:space="preserve">
<style type="text/css">
	.st0{fill-rule:evenodd;clip-rule:evenodd;fill:url(#XMLID_21_);}
	.st1{fill:#262261;}
	.st2{fill:url(#XMLID_22_);}
	.st3{fill-rule:evenodd;clip-rule:evenodd;fill:url(#XMLID_23_);}
	.st4{fill:#FFFFFF;}
</style>
<g id="XMLID_195_">
	<g id="XMLID_203_">
		<linearGradient id="XMLID_21_" gradientUnits="userSpaceOnUse" x1="15.9999" y1="3.4708" x2="15.9999" y2="28.1238">
			<stop  offset="0.1327" style="stop-color:#93D5EA"/>
			<stop  offset="0.2288" style="stop-color:#84CEE7"/>
			<stop  offset="0.4143" style="stop-color:#5CBBE0"/>
			<stop  offset="0.668" style="stop-color:#1D9CD4"/>
			<stop  offset="0.7755" style="stop-color:#008ECF"/>
		</linearGradient>
		<path id="XMLID_210_" class="st0" d="M16,28.729c-7.019,0-12.729-5.71-12.729-12.729S8.981,3.271,16,3.271S28.729,8.981,28.729,16
			S23.019,28.729,16,28.729z"/>
		<path id="XMLID_207_" class="st1" d="M16,3.542c6.881,0,12.458,5.578,12.458,12.458c0,6.881-5.578,12.458-12.458,12.458
			C9.119,28.458,3.542,22.881,3.542,16C3.542,9.119,9.119,3.542,16,3.542 M16,3C8.832,3,3,8.832,3,16c0,7.168,5.832,13,13,13
			s13-5.832,13-13C29,8.832,23.168,3,16,3L16,3z"/>
		<linearGradient id="XMLID_22_" gradientUnits="userSpaceOnUse" x1="16" y1="3.5417" x2="16" y2="28.4583">
			<stop  offset="0.3367" style="stop-color:#E2EFEF"/>
			<stop  offset="0.6582" style="stop-color:#E2EFEF;stop-opacity:0"/>
			<stop  offset="0.8827" style="stop-color:#E2EFEF;stop-opacity:0"/>
		</linearGradient>
		<path id="XMLID_204_" class="st2" d="M16,3.813c6.72,0,12.188,5.467,12.188,12.188S22.72,28.187,16,28.187S3.813,22.72,3.813,16
			S9.28,3.813,16,3.813 M16,3.542C9.119,3.542,3.542,9.119,3.542,16c0,6.881,5.578,12.458,12.458,12.458
			c6.881,0,12.458-5.578,12.458-12.458C28.458,9.119,22.881,3.542,16,3.542L16,3.542z"/>
		<linearGradient id="XMLID_23_" gradientUnits="userSpaceOnUse" x1="16" y1="-0.6581" x2="16" y2="17.4894">
			<stop  offset="0.25" style="stop-color:#FFFFFF"/>
			<stop  offset="0.6224" style="stop-color:#FFFFFF;stop-opacity:0"/>
		</linearGradient>
		<path id="XMLID_196_" class="st3" d="M16,4.014c4.597,0,9.265,2.844,11.703,7.703C25.956,6.946,21.376,3.542,16,3.542
			c-5.376,0-9.956,3.405-11.703,8.176C6.746,6.908,11.403,4.014,16,4.014z"/>
	</g>
	<g id="XMLID_2_">
		<path id="XMLID_12_" class="st4" d="M5.76,17.698h0.92c0.087,0.348,0.37,0.521,0.849,0.521c0.338,0,0.577-0.112,0.716-0.338
			c0.139-0.226,0.208-0.568,0.208-1.027V13.11h1.031v3.713c0,0.794-0.164,1.382-0.492,1.765s-0.854,0.574-1.579,0.574
			c-0.481,0-0.87-0.129-1.167-0.387C5.952,18.517,5.79,18.157,5.76,17.698z"/>
		<path id="XMLID_14_" class="st4" d="M13.294,19.084v-0.366c-0.14,0.122-0.333,0.227-0.579,0.313s-0.472,0.13-0.679,0.13
			c-0.986,0-1.479-0.537-1.479-1.613v-2.833h0.992v2.755c0,0.56,0.245,0.839,0.734,0.839c0.225,0,0.434-0.06,0.627-0.179
			c0.193-0.12,0.321-0.259,0.385-0.416v-3h0.992v4.369H13.294z"/>
		<path id="XMLID_16_" class="st4" d="M20.277,19.08v-2.735c0-0.573-0.25-0.86-0.75-0.86c-0.148,0-0.291,0.045-0.429,0.135
			c-0.137,0.089-0.233,0.193-0.289,0.31v3.15h-0.992v-2.894c0-0.215-0.064-0.385-0.194-0.512s-0.312-0.189-0.547-0.189
			c-0.125,0-0.26,0.048-0.407,0.143c-0.146,0.095-0.253,0.2-0.319,0.314v3.138h-0.992v-4.365h0.682l0.203,0.383
			c0.275-0.31,0.631-0.464,1.067-0.464c0.563,0,0.988,0.157,1.273,0.473c0.125-0.144,0.298-0.259,0.52-0.344
			c0.223-0.086,0.444-0.128,0.667-0.128c0.474,0,0.842,0.139,1.104,0.417c0.264,0.279,0.396,0.661,0.396,1.147v2.881H20.277z"/>
		<path id="XMLID_18_" class="st4" d="M23.252,18.97v1.822H22.26v-6.077h0.992v0.293c0.248-0.25,0.554-0.375,0.916-0.375
			c1.354,0,2.031,0.766,2.031,2.298c0,0.715-0.187,1.265-0.562,1.651c-0.374,0.386-0.885,0.578-1.533,0.578
			C23.793,19.161,23.508,19.098,23.252,18.97z M23.252,15.783v2.294c0.18,0.149,0.39,0.225,0.631,0.225
			c0.457,0,0.786-0.112,0.985-0.336c0.2-0.225,0.3-0.579,0.3-1.062c0-0.516-0.1-0.88-0.298-1.09s-0.526-0.316-0.983-0.316
			C23.649,15.498,23.437,15.593,23.252,15.783z"/>
	</g>
	<g id="XMLID_201_">
		<path id="XMLID_3_" class="st1" d="M5.78,17.375h0.92c0.087,0.351,0.37,0.527,0.849,0.527c0.338,0,0.577-0.114,0.716-0.342
			c0.139-0.228,0.208-0.573,0.208-1.036v-3.778h1.031v3.746c0,0.8-0.164,1.394-0.492,1.781c-0.328,0.386-0.854,0.579-1.579,0.579
			c-0.481,0-0.87-0.13-1.167-0.391C5.972,18.2,5.81,17.838,5.78,17.375z"/>
		<path id="XMLID_5_" class="st1" d="M13.314,18.773v-0.37c-0.14,0.124-0.333,0.229-0.579,0.316
			c-0.246,0.088-0.472,0.132-0.679,0.132c-0.986,0-1.479-0.543-1.479-1.628v-2.858h0.992v2.78c0,0.564,0.245,0.847,0.734,0.847
			c0.225,0,0.434-0.06,0.627-0.181s0.321-0.26,0.385-0.419v-3.026h0.992v4.408H13.314z"/>
		<path id="XMLID_7_" class="st1" d="M20.297,18.769V16.01c0-0.579-0.25-0.868-0.75-0.868c-0.148,0-0.291,0.045-0.429,0.136
			c-0.137,0.09-0.233,0.194-0.289,0.313v3.178h-0.992v-2.919c0-0.216-0.064-0.388-0.194-0.516c-0.13-0.127-0.312-0.191-0.547-0.191
			c-0.125,0-0.26,0.048-0.407,0.144c-0.146,0.096-0.253,0.201-0.319,0.316v3.166h-0.992v-4.404h0.682l0.203,0.387
			c0.275-0.313,0.631-0.469,1.067-0.469c0.563,0,0.988,0.159,1.273,0.477c0.125-0.146,0.298-0.261,0.52-0.348
			c0.223-0.086,0.444-0.129,0.667-0.129c0.474,0,0.842,0.141,1.104,0.421c0.264,0.281,0.396,0.667,0.396,1.158v2.907H20.297z"/>
		<path id="XMLID_9_" class="st1" d="M23.272,18.657v1.838H22.28v-6.13h0.992v0.296c0.248-0.252,0.554-0.378,0.916-0.378
			c1.354,0,2.031,0.773,2.031,2.319c0,0.721-0.187,1.276-0.562,1.665c-0.374,0.39-0.885,0.584-1.533,0.584
			C23.813,18.851,23.528,18.786,23.272,18.657z M23.272,15.443v2.315c0.18,0.15,0.39,0.226,0.631,0.226
			c0.457,0,0.786-0.113,0.985-0.339c0.2-0.227,0.3-0.583,0.3-1.072c0-0.521-0.1-0.887-0.298-1.1s-0.526-0.319-0.983-0.319
			C23.669,15.155,23.457,15.251,23.272,15.443z"/>
	</g>
</g>
</svg>
