<?xml version="1.0" encoding="utf-8"?>
<svg version="1.1" id="sqe_icon" xmlns="http://www.w3.org/2000/svg" xmlns:xlink="http://www.w3.org/1999/xlink" x="0px" y="0px"
     viewBox="0 0 64 64" enable-background="new 0 0 64 64" xml:space="preserve">
<g>
    <g>
        <path fill="#EC821B" d="M5,4c0,0,0,9.288,0,31.418S32,64,32,64s27-6.452,27-28.582S59,4,59,4H5z"/>
        <path fill="#FAB818" d="M32,0H5c0,0,0,8.87,0,30.964S32,59.5,32,59.5s27-6.442,27-28.536S59,0,59,0H32z"/>
    </g>
    <g>
        <path fill="#EA7011" d="M53.101,12.019l-1.461,0.569c-1.754-0.381-3.782-0.443-5.039,0.522c-0.947,0.728-1.56,1.534-1.966,2.245
            l-0.739,0.192V17.5l0.281,0.263l-1.182-0.668l-0.557-0.09v2.507l0.742,0.832h-0.49l-0.941-0.941
            c-1.528,0.423-5.462,3.582-9.081,6.839c-0.247-0.185-0.508-0.387-0.778-0.602v-1.715l-2.397-0.417
            c0.001-0.002-1.078-0.992-1.078-0.992l-0.088-1.803L28.54,20.5v-1.715l-0.758-0.448l0.734-0.734v-1.715l-1.042,0.609
            c-0.765-1.035-0.88-2.277-0.221-2.98c0.881-0.881,2.009-0.813,2.749-0.073l0.658,0.658l2.289-2.289v-1.715l-1.475,0.24
            L30.78,9.644c0.168,0.168,0.167,0.167,0.167,0.167c-1.264-1.264-3.313-1.264-4.577,0l-0.803,0.803l0,0
            c-1.115,1.115-2.923,1.115-4.038,0l-0.678-0.678l-6.141,6.141l-0.49-0.714l-1.099,0.587v1.715l0.678,0.678
            c1.115,1.115,1.115,2.923,0,4.037l-2.019-2.019l-1.814,1.814L8.69,21.738v1.715l6.309,6.309l3.091-3.091v-1.715l-1.685-0.577
            c1.117-0.822,2.692-0.738,3.703,0.273l0.678,0.678l1.437-1.437l0.002,0.002l0.576-0.576v1.152l0.882,0.882l1.652-1.652v1.156
            c1.976,1.976,3.122,3.345,3.996,4.499c-0.293,0.285-0.578,0.565-0.848,0.835c-4.529,4.529-6.522,7.881-7.273,10.001l-0.393,0.081
            v1.802l0.002,0.003c0.006,0.356,0.083,0.596,0.197,0.711c0.629,0.629,4.953,0.179,12.598-7.466
            c0.087-0.087,0.181-0.183,0.27-0.273c0.117,0.12,0.225,0.234,0.351,0.36l6.626,6.626l0.003-0.003
            c0.021,0.022,0.039,0.045,0.06,0.066c1.204,1.204,3.155,1.204,4.359,0c0.617-0.617,0.913-1.43,0.897-2.239h0.006l-0.001-1.739
            l-0.454,0.202l-7.644-7.766c3.064-3.449,5.917-7.051,6.317-8.497v-1.372l0.69,0.69l0.882-0.882v-1.152l0.576,0.576
            c0,0,2.794,1.046,4.653-2.669c1.859-3.716,3.328-3.66,3.712-3.389v-1.715C54.675,11.964,54.343,11.816,53.101,12.019z
             M54.633,13.663l0.008,0.002l0.023,0.016C54.655,13.674,54.643,13.668,54.633,13.663z"/>
        <g>
            <path fill="#FFFFFF" d="M22.226,22.18l4.855-4.855l-0.002-0.002l1.437-1.437l-0.658-0.658c-1.099-1.099-1.362-2.62-0.606-3.427
                c0.881-0.881,2.009-0.813,2.749-0.073l0.658,0.658l2.289-2.289l-2.014-2.014c0.01,0.01,0.013,0.013,0.013,0.013
                c-1.264-1.264-3.313-1.264-4.577,0L25.567,8.9l0,0c-1.115,1.115-2.923,1.115-4.038,0l-0.678-0.678l-7.729,7.729l0.678,0.678
                c1.115,1.115,1.115,2.923,0,4.038l-2.019-2.019l-3.091,3.09l6.309,6.309l3.091-3.091l-2.019-2.019l0,0
                c1.115-1.115,2.923-1.115,4.037,0l0.678,0.678l1.437-1.437L22.226,22.18z"/>
            <rect x="22.238" y="20.146" transform="matrix(0.7071 -0.7071 0.7071 0.7071 -7.1679 24.2356)" fill="#FFFFFF" width="6.866" height="1.248"/>
            <path fill="#FFFFFF" d="M31.89,23.924c-1.02-0.812-2.229-1.87-3.847-3.488l-2.706,2.706c1.558,1.558,2.594,2.734,3.394,3.73
                C29.651,25.981,30.734,24.967,31.89,23.924z"/>
            <path fill="#FFFFFF" d="M46.602,11.396c-2.363,1.815-2.705,4.152-2.705,4.152l2.656,2.656c0,0,2.794,1.046,4.653-2.669
                s3.328-3.66,3.712-3.389C54.066,11.387,48.965,9.58,46.602,11.396z"/>
            <path fill="#FFFFFF" d="M34.895,32.3c3.969-4.13,8.97-10.004,9.51-11.956l-2.656-2.656c-2.023,0.56-8.269,5.919-12.409,9.946
                c-0.002,0.002-0.005,0.005-0.007,0.007l0,0c-0.293,0.285-0.578,0.565-0.848,0.835c-7.645,7.645-8.095,11.969-7.466,12.598
                c0.629,0.629,4.953,0.179,12.598-7.466c0.403-0.403,0.829-0.84,1.264-1.293C34.885,32.309,34.89,32.305,34.895,32.3z"/>
            <rect x="43.584" y="16.016" transform="matrix(0.7071 -0.7071 0.7071 0.7071 0.2953 36.5008)" fill="#FFFFFF" width="1.248" height="3.756"/>
            <path fill="#FFFFFF" d="M45.219,35.964l0.002-0.002l-6.442-6.442c-1.518,1.707-3.023,3.308-4.209,4.506l6.293,6.293l0.003-0.003
                c0.02,0.022,0.038,0.045,0.06,0.066c1.204,1.204,3.155,1.204,4.359,0s1.204-3.155,0-4.359
                C45.263,36.002,45.24,35.984,45.219,35.964z"/>
        </g>
    </g>
</g>
</svg>
